<?xml version="1.0" standalone="no"?>
<!DOCTYPE svg PUBLIC "-//W3C//DTD SVG 20010904//EN"
 "http://www.w3.org/TR/2001/REC-SVG-20010904/DTD/svg10.dtd">
<svg version="1.0" xmlns="http://www.w3.org/2000/svg"
 width="2000.000000pt" height="2000.000000pt" viewBox="0 0 2000.000000 2000.000000"
 preserveAspectRatio="xMidYMid meet">

<g transform="translate(0.000000,2000.000000) scale(0.100000,-0.100000)"
fill="#000000" stroke="none">
<path d="M10310 14294 c-19 -2 -84 -9 -145 -15 -772 -77 -1543 -407 -2202
-941 -645 -523 -1125 -1273 -1314 -2050 l-23 -95 -110 -49 c-737 -329 -1301
-998 -1502 -1784 -53 -204 -74 -359 -81 -586 -10 -328 27 -607 119 -894 225
-704 722 -1282 1383 -1606 191 -93 344 -149 549 -199 233 -58 339 -70 626 -70
325 0 486 21 763 101 293 84 624 249 857 428 251 193 434 345 611 508 59 54
109 98 113 98 16 0 -4 -764 -24 -915 -23 -173 -63 -289 -126 -364 -34 -41
-111 -80 -172 -87 -80 -9 -92 -13 -92 -33 0 -18 20 -19 423 -24 273 -4 473
-11 567 -21 80 -9 233 -25 340 -36 257 -27 618 -37 775 -21 550 56 940 291
1139 687 126 251 165 607 97 885 -53 216 -186 421 -361 560 -218 172 -429 251
-742 279 -237 22 -423 -18 -728 -155 -58 -25 -139 -60 -180 -77 -132 -54 -238
-40 -264 34 -8 23 2 40 87 155 l97 130 104 46 c57 25 236 90 397 145 421 143
519 182 704 275 286 143 504 359 582 575 68 187 71 403 8 589 -51 151 -211
319 -378 399 -20 10 -37 20 -37 23 0 16 263 335 328 399 261 256 630 388 987
353 308 -30 567 -151 780 -365 308 -311 432 -731 341 -1161 -86 -406 -395
-761 -791 -908 -168 -63 -224 -71 -440 -71 -166 1 -213 4 -277 21 l-77 20 -6
-29 c-4 -16 -5 -31 -3 -33 10 -10 124 -34 213 -46 114 -14 280 -7 405 16 400
77 747 342 934 713 52 103 101 259 122 381 24 148 15 378 -20 517 -62 249
-162 429 -338 610 -208 214 -449 342 -737 389 -150 25 -387 17 -529 -19 -185
-47 -351 -127 -497 -241 -106 -83 -185 -167 -339 -362 l-127 -162 -41 15 c-76
27 -202 53 -338 70 -185 23 -558 15 -925 -20 -148 -14 -287 -28 -307 -31 l-38
-5 0 57 c0 299 146 1018 318 1568 l28 90 54 2 c184 9 324 34 495 90 380 124
702 378 848 668 160 318 133 713 -67 1010 l-47 70 33 27 c18 14 77 54 131 88
232 144 430 231 572 251 87 11 105 20 86 42 -33 40 -201 26 -351 -29 -114 -42
-395 -178 -498 -240 l-72 -44 -70 51 c-243 176 -530 282 -905 334 -113 16
-603 29 -695 19z m550 -114 c415 -30 771 -133 988 -287 34 -24 62 -47 62 -51
0 -4 -35 -29 -77 -57 -383 -248 -844 -637 -1339 -1130 -235 -235 -334 -337
-504 -520 -670 -724 -1100 -1133 -1540 -1467 -418 -316 -824 -529 -1197 -629
-147 -39 -257 -57 -400 -65 l-111 -7 -11 39 c-64 247 -75 546 -30 814 24 138
76 341 92 356 39 37 526 134 675 134 l23 0 -26 -35 c-112 -146 -19 -345 160
-345 204 0 288 260 123 380 -22 17 -49 30 -60 30 -11 0 -18 7 -18 20 0 19 -7
20 -94 20 -185 0 -469 -39 -649 -90 -56 -16 -104 -27 -106 -24 -7 7 78 220
145 364 313 674 813 1292 1399 1729 221 166 422 289 674 416 608 304 1243 445
1821 405z m1182 -500 c16 -30 37 -93 49 -140 19 -73 21 -103 16 -225 -9 -248
-77 -415 -275 -680 -237 -316 -556 -537 -852 -591 -117 -21 -193 -18 -216 7
-27 30 -107 68 -157 75 -33 5 -47 2 -68 -15 -15 -11 -29 -30 -32 -41 -7 -28
34 -76 78 -90 19 -6 35 -16 35 -21 0 -5 -23 -60 -51 -122 -315 -695 -440
-1084 -496 -1547 l-8 -65 -262 -3 c-246 -2 -263 -4 -263 -20 0 -15 14 -21 75
-30 126 -20 190 -66 243 -177 89 -185 102 -408 102 -1822 l0 -922 -103 -100
c-115 -112 -117 -114 -282 -255 -236 -202 -615 -471 -780 -553 -408 -205 -849
-295 -1327 -271 -640 31 -1245 303 -1708 767 -420 421 -678 960 -750 1566 -7
55 -12 186 -12 290 2 674 233 1262 697 1779 133 148 379 349 565 460 108 65
339 181 345 174 3 -3 -2 -52 -11 -109 -46 -307 -32 -711 32 -963 8 -32 13 -60
11 -63 -3 -2 -98 1 -211 8 -253 14 -633 7 -727 -15 -166 -38 -243 -89 -251
-166 -5 -50 10 -74 60 -98 31 -14 68 -17 222 -17 171 1 197 3 340 34 85 18
216 48 290 66 137 34 310 69 313 63 74 -150 108 -210 145 -261 189 -251 459
-403 800 -448 115 -15 414 -6 512 16 259 57 458 162 625 331 144 144 230 301
281 509 41 170 28 231 -31 145 -87 -125 -267 -237 -459 -285 -120 -30 -344
-49 -481 -40 -256 16 -728 68 -950 103 l-50 8 55 8 c879 122 1626 514 2500
1312 360 330 677 672 1109 1199 462 563 816 931 1168 1215 54 44 103 78 108
77 6 -2 22 -27 37 -57z m-651 -3445 c210 -27 362 -75 500 -155 38 -23 69 -46
69 -52 0 -5 -35 -60 -79 -122 -91 -128 -320 -475 -476 -721 -201 -317 -512
-788 -600 -910 -16 -22 -54 -61 -84 -85 -71 -58 -137 -149 -156 -214 -11 -38
-41 -84 -116 -176 -55 -69 -102 -127 -105 -129 -2 -2 -4 459 -4 1025 l0 1029
101 -3 c81 -3 115 1 171 18 135 41 253 120 344 229 89 108 66 152 -32 62 -194
-177 -416 -133 -458 91 -7 36 -6 37 31 48 63 17 302 59 393 69 135 13 386 12
501 -4z m-2430 -287 c-123 -358 -435 -624 -831 -709 -122 -26 -363 -36 -483
-20 -323 43 -585 187 -743 407 -52 73 -129 229 -119 243 14 23 157 12 310 -25
748 -177 758 -178 1070 -179 218 0 247 2 322 22 164 45 279 113 403 236 41 41
78 75 82 76 4 1 -1 -23 -11 -51z m3133 -36 c101 -125 146 -255 146 -432 0
-126 -16 -196 -69 -305 -72 -147 -198 -272 -416 -414 -101 -66 -831 -442 -823
-424 1 5 66 103 143 218 77 116 169 255 204 310 36 55 124 192 196 305 314
490 541 823 554 815 5 -2 34 -36 65 -73z m-344 -1912 c100 -13 161 -31 250
-75 517 -259 697 -1147 345 -1696 -58 -90 -163 -200 -260 -272 -269 -200 -653
-290 -1101 -259 -192 14 -347 43 -523 97 l-121 38 0 864 0 864 107 130 c58 71
108 129 111 129 2 0 13 -12 25 -26 68 -86 210 -70 507 56 186 80 318 125 411
140 41 6 81 13 89 15 32 6 79 5 160 -5z"/>
</g>
</svg>
